<?xml version="1.0" encoding="UTF-8"?>
<svg version="1.1" xmlns="http://www.w3.org/2000/svg" width="371" height="366">
<path d="M0 0 C7.58113579 7.74960548 10.14331 15.8801983 10.125 26.5 C10.12886719 28.74296875 10.12886719 28.74296875 10.1328125 31.03125 C10 35 10 35 9 39 C9.89066162 38.85997559 10.78132324 38.71995117 11.69897461 38.57568359 C48.25116825 33.21548508 88.11453196 36.53900263 118.69921875 59.15625 C143.55137545 79.07173041 156.90509273 107.67165352 160.71875 139.09765625 C163.25331656 174.26476725 155.6879078 209.11613206 132.78515625 236.6640625 C130.57883174 239.16895816 128.31287531 241.59335948 126 244 C125.195625 244.8559375 124.39125 245.711875 123.5625 246.59375 C118.14657915 252.21276788 112.61138951 256.85962911 106 261 C104.96230469 261.65871094 103.92460937 262.31742187 102.85546875 262.99609375 C75.13704972 279.75385794 40.51195619 284.77378578 8.9609375 278.15234375 C-23.43220688 269.86962464 -52.20590609 250.42489958 -69.87109375 221.69921875 C-86.36914449 193.0319636 -92.74374603 162.06498714 -85.25390625 129.57421875 C-78.33127033 104.32061546 -62.85315535 78.16614524 -40.91796875 62.84765625 C-40.28503906 62.23792969 -39.65210938 61.62820312 -39 61 C-42.54210257 58.28879843 -42.54210257 58.28879843 -45.43359375 56.6328125 C-52.16181866 52.35214581 -55.52636545 46.09073754 -57.6875 38.625 C-59.04111912 27.25459942 -56.61235008 16.39529611 -49.75 7.0625 C-42.3871984 -1.6150876 -35.03110656 -5.46194544 -24 -7.875 C-14.51582769 -8.17138038 -7.2980156 -6.16276873 0 0 Z M-33.875 13.8125 C-39.35871144 19.40588567 -40.78812686 24.16069381 -41 32 C-39.82827192 37.05307736 -38.91115905 39.28536545 -34.8125 42.5 C-26.68089498 45.69932001 -20.76690095 43.48397619 -12.953125 40.484375 C-8.76953812 38.38151387 -6.49021155 36.47063466 -5 32 C-4.42035108 25.09994844 -4.80549454 19.27885556 -8 13 C-10.82198751 9.85549963 -12.63775895 9.09056026 -16.75 8.0625 C-23.62954982 7.96133015 -28.3327351 9.78988838 -33.875 13.8125 Z M18 77 C16.948125 77.165 15.89625 77.33 14.8125 77.5 C11.69198703 77.91754385 11.69198703 77.91754385 8 80 C8.03205509 82.34331052 8.03205509 82.34331052 9 85 C9.33257812 86.07636719 9.66515625 87.15273437 10.0078125 88.26171875 C10.75540808 90.55417092 11.50542686 92.84583421 12.2578125 95.13671875 C13 98 13 98 12 100 C7.46708413 97.12334185 3.68309797 93.88771453 0 90 C-2.6319623 86.6764662 -2.6319623 86.6764662 -5.875 86.9375 C-6.57625 87.288125 -7.2775 87.63875 -8 88 C-7.00590779 90.83324955 -7.00590779 90.83324955 -5 94 C-3.98642496 96.3274686 -2.98302491 98.65946449 -2 101 C-7.68082936 98.96183985 -11.70275773 97.29724227 -16 93 C-25.50016468 97.75008234 -31.11108664 104.29986329 -37 113 C-37.99 114.32 -38.98 115.64 -40 117 C-40.33 118.32 -40.66 119.64 -41 121 C-37.31919725 124.79234222 -32.64236123 126.83143466 -27.9375 129.125 C-25.84728516 130.14980469 -25.84728516 130.14980469 -23.71484375 131.1953125 C-22.48894531 131.79085937 -21.26304688 132.38640625 -20 133 C-18.68 133.66 -17.36 134.32 -16 135 C-19.29172069 135.02688338 -22.58322354 135.0467821 -25.875 135.0625 C-26.81214844 135.07087891 -27.74929687 135.07925781 -28.71484375 135.08789062 C-35.7734375 135.11328125 -35.7734375 135.11328125 -38 134 C-42.54230793 133.24992986 -42.54230793 133.24992986 -47 134 C-48.33111963 137.34424686 -48.33111963 137.34424686 -48 142 C-48.04511719 143.00675781 -48.09023437 144.01351562 -48.13671875 145.05078125 C-48.61202313 159.26074317 -46.73826752 174.61330132 -38.5625 186.5625 C-35.6964964 189.28869854 -34.86066094 189.73337977 -31 190 C-27.15091976 189.03936428 -27.15091976 189.03936428 -23.1875 187.5625 C-21.16689453 186.85287109 -21.16689453 186.85287109 -19.10546875 186.12890625 C-18.08066406 185.75636719 -17.05585937 185.38382812 -16 185 C-16.99 186.175625 -16.99 186.175625 -18 187.375 C-20.20201441 189.71512812 -20.20201441 189.71512812 -20 192 C-21.485 192.495 -21.485 192.495 -23 193 C-23 193.66 -23 194.32 -23 195 C-24.98 195.99 -24.98 195.99 -27 197 C-27.99 198.32 -28.98 199.64 -30 201 C-27.76180939 205.0010117 -27.76180939 205.0010117 -24 208 C-20.42705543 208 -18.17551166 207.58775583 -15 206 C-15.515625 206.680625 -16.03125 207.36125 -16.5625 208.0625 C-18.49276344 212.00695138 -18.31939282 213.82192272 -17 218 C-12.27883006 222.81952765 -6.69705537 226.42871156 -1 230 C-0.34 230 0.32 230 1 230 C1.33 230.99 1.66 231.98 2 233 C4.18785734 234.17654587 4.18785734 234.17654587 6.8125 235.0625 C10.02127978 236.24268636 12.92409346 237.46204673 16 239 C30.45551936 244.71497277 48.09865142 242.60561805 62.75 238.75 C63.8225 238.1725 64.895 237.595 66 237 C67.16986491 232.56889156 67.10553079 228.18626425 67.0625 223.625 C67.05347656 222.37976563 67.04445313 221.13453125 67.03515625 219.8515625 C67.02355469 218.91054688 67.01195312 217.96953125 67 217 C67.33 217.66 67.66 218.32 68 219 C68.66 219 69.32 219 70 219 C70.226875 219.66 70.45375 220.32 70.6875 221 C72.55592655 225.27068925 75.33665373 229.07859728 79 232 C85.45934998 230.3851625 89.20048732 225.79951268 93.8125 221.1875 C95.34125763 218.10871814 95.34125763 218.10871814 94.12109375 215.40234375 C92.85953371 212.84687597 91.50904882 210.41638829 90 208 C90.78503906 208.26039063 91.57007813 208.52078125 92.37890625 208.7890625 C95.76305783 209.67766181 98.49934726 210.2061788 102 210 C105.3646728 207.25640479 107.04181518 203.82262676 109 200 C109.5053125 199.19820313 110.010625 198.39640625 110.53125 197.5703125 C112.63183096 194.19771307 113.97104937 191.1336183 114.8125 187.25 C114.28640859 183.66846363 114.28640859 183.66846363 110.69921875 181.59765625 C105.40326842 178.46879394 99.74257643 176.34725497 94 174.1875 C92.93910156 173.78080078 91.87820312 173.37410156 90.78515625 172.95507812 C88.19286214 171.96253308 85.5979092 170.97773182 83 170 C86.94645767 169.01338558 90.01698543 168.90017576 94.06640625 168.9375 C95.43861328 168.94523437 96.81082031 168.95296875 98.22460938 168.9609375 C100.37186523 168.98027344 100.37186523 168.98027344 102.5625 169 C105.39709767 169.02545665 108.23173939 169.04650752 111.06640625 169.0625 C112.9527478 169.07990234 112.9527478 169.07990234 114.87719727 169.09765625 C118.03278892 169.14819288 118.03278892 169.14819288 121 168 C125.12800016 155.61599953 124.18104165 139.19900629 120 127 C118.3916257 123.47380814 118.3916257 123.47380814 115 122 C110.632998 121.61795365 106.37030741 121.71205881 102 122 C103.06541016 121.32904297 103.06541016 121.32904297 104.15234375 120.64453125 C105.53099609 119.73767578 105.53099609 119.73767578 106.9375 118.8125 C107.85402344 118.22082031 108.77054688 117.62914062 109.71484375 117.01953125 C112.16436576 115.18001039 112.16436576 115.18001039 112.91796875 112.4609375 C113.0245555 109.26333486 111.91030474 107.49650051 109.96875 105.015625 C105.4812698 100.42130003 100.16563509 96.78495843 95 93 C94.08734375 92.28328125 93.1746875 91.5665625 92.234375 90.828125 C82.23769482 83.10613851 71.73242126 77.56172447 59 77 C58.01 76.34 57.02 75.68 56 75 C52.04286278 74.08322774 52.04286278 74.08322774 48 75 C45.25534855 79.71517044 44.02713374 83.69314232 43 89 C42.34 89 41.68 89 41 89 C41 87.68 41 86.36 41 85 C40.34 85 39.68 85 39 85 C38.87625 84.2575 38.7525 83.515 38.625 82.75 C37.81668835 79.19342872 36.99444168 78.09610918 34 76 C27.97891512 74.7783306 23.77033188 75.04026464 18 77 Z " fill="#030303" transform="translate(144,42)"/>
<path d="M0 0 C2.10955078 0.51046875 2.10955078 0.51046875 4.26171875 1.03125 C19.19142656 5.04504974 32.9935867 11.18381135 45 21 C45.72574219 21.56332031 46.45148438 22.12664062 47.19921875 22.70703125 C66.80268834 38.65118651 74.43015819 67.98448717 77 92 C78.61055931 126.41021915 66.38314901 155.73074139 43.79296875 181.51953125 C25.96970853 200.40094421 -0.54267053 212.31923784 -26.4609375 213.37109375 C-63.39927654 214.01596884 -63.39927654 214.01596884 -74 205 C-74 200 -74 200 -73 199 C-66.47959035 199.38355351 -60.48754438 201.19778162 -54.26953125 203.0625 C-34.09889802 208.84619412 -8.89880438 206.06665001 9.6484375 196.65625 C35.89404296 181.75338254 52.34900425 156.65639827 61.73828125 128.6171875 C68.8701272 102.51860572 66.62395794 73.44636998 53.15234375 49.75 C40.11671539 29.43204248 20.70068572 15.41576755 -3 10 C-33.88023175 3.57450002 -67.11367881 8.19604925 -94 25 C-97.47666416 27.51472197 -100.74494565 30.20747557 -104 33 C-105.175625 33.9075 -106.35125 34.815 -107.5625 35.75 C-121.65671452 49.07543918 -131.94205816 69.27576355 -133.17700195 88.7980957 C-133.52275197 105.03457159 -133.0491031 119.45716858 -126.75 134.6875 C-124.15859766 141.07345576 -124.15859766 141.07345576 -125 145 C-127.125 147.4375 -127.125 147.4375 -130 149 C-133.125 149.0625 -133.125 149.0625 -136 148 C-138.9041937 144.03293129 -140.19608267 139.73058883 -141.625 135.0625 C-142.26308594 133.00708984 -142.26308594 133.00708984 -142.9140625 130.91015625 C-150.11710958 104.97400472 -143.8967997 77.04731825 -131.3125 53.9375 C-116.29916261 28.5899342 -93.85591162 10.53930915 -66 1 C-64.79988281 0.58492188 -63.59976563 0.16984375 -62.36328125 -0.2578125 C-42.88117981 -5.8916659 -19.57422221 -4.76389314 0 0 Z " fill="#F5F5F5" transform="translate(215,95)"/>
<path d="M0 0 C0.828125 2.2734375 0.828125 2.2734375 1.25 5.375 C1.39953125 6.37273437 1.5490625 7.37046875 1.703125 8.3984375 C2.473519 17.74453309 1.63920968 26.71525695 0.5625 36 C0.42779297 37.22589844 0.29308594 38.45179688 0.15429688 39.71484375 C-0.86727121 48.73454241 -0.86727121 48.73454241 -2 51 C-2.37221891 53.51538563 -2.69824884 56.03769148 -3 58.5625 C-3.17789063 60.01140625 -3.35578125 61.4603125 -3.5390625 62.953125 C-3.87474589 65.90031136 -4.1445628 68.85522263 -4.375 71.8125 C-6.13013156 83.57188148 -11.89147636 91.66420834 -19 101 C-20.62540443 103.16636329 -22.25042967 105.33301115 -23.875 107.5 C-24.57367188 108.4178125 -25.27234375 109.335625 -25.9921875 110.28125 C-27.37922534 112.15941797 -28.70985512 114.08009328 -29.9921875 116.03125 C-35.18945987 123.71593289 -41.48728354 129.65196455 -49 135 C-50.35053546 136.31590635 -51.69306167 137.64078414 -53 139 C-53.33 139 -53.66 139 -54 139 C-56.79096721 122.05174315 -57.30377532 105.07276231 -57.3125 87.9375 C-57.31581329 86.98170044 -57.31912659 86.02590088 -57.32254028 85.0411377 C-57.36049306 66.51779733 -56.29603478 53.3953931 -43.265625 39.48046875 C-41.15681568 37.17168614 -39.2560717 34.80788565 -37.375 32.3125 C-34.23347393 28.18653258 -30.70226437 24.63615251 -27 21 C-25.948125 19.741875 -24.89625 18.48375 -23.8125 17.1875 C-18.38171134 10.86803683 -8.48350006 0 0 0 Z " fill="#080808" transform="translate(210,131)"/>
<path d="M0 0 C0.33 0 0.66 0 1 0 C1.23647244 7.32227499 0.66314616 14.3958023 -0.20703125 21.66015625 C-0.3330925 22.7312413 -0.45915375 23.80232635 -0.58903503 24.90586853 C-0.85569806 27.14913786 -1.12562401 29.39202154 -1.39868164 31.63452148 C-1.8148862 35.08226671 -2.20943619 38.53208643 -2.60351562 41.98242188 C-2.86586728 44.16682563 -3.12949292 46.35107684 -3.39453125 48.53515625 C-3.56816948 50.08808128 -3.56816948 50.08808128 -3.74531555 51.67237854 C-4.05603937 54.13090849 -4.5135971 56.57011707 -5 59 C-6.485 59.495 -6.485 59.495 -8 60 C-8.68603549 61.99343918 -9.35008944 63.99449241 -10 66 C-11.671875 68.32421875 -11.671875 68.32421875 -13.75 70.6875 C-18.23847886 75.98273159 -22.39243902 81.47095419 -26.5 87.0625 C-27.12358398 87.9083667 -27.74716797 88.7542334 -28.38964844 89.62573242 C-31.43641405 93.65980922 -31.43641405 93.65980922 -34 98 C-34.66 98 -35.32 98 -36 98 C-36.30107117 95.90335083 -36.30107117 95.90335083 -36.36987305 92.92626953 C-36.39877121 91.81736359 -36.42766937 90.70845764 -36.45744324 89.56594849 C-36.47535416 88.35051361 -36.49326508 87.13507874 -36.51171875 85.8828125 C-36.53023392 84.64135468 -36.54874908 83.39989685 -36.56782532 82.12081909 C-36.59998247 79.4793787 -36.62558156 76.83785187 -36.64526367 74.19628906 C-36.67323839 71.49972052 -36.72083219 68.80327839 -36.78881836 66.10742188 C-36.88669189 62.21928201 -36.92437559 58.33452743 -36.94921875 54.4453125 C-36.98939621 53.25011993 -37.02957367 52.05492737 -37.07096863 50.82351685 C-37.03684065 44.0847435 -36.16635196 40.43918352 -31.59887695 35.34912109 C-30.0826864 33.88188562 -28.55171324 32.42961524 -27 31 C-25.48170209 29.18179139 -23.97690348 27.35199007 -22.5 25.5 C-18.84859119 20.98981037 -15.05125767 16.65315422 -11.14453125 12.36328125 C-9.08935284 10.09846716 -7.07016437 7.80694353 -5.0625 5.5 C-3.42167784 3.62477468 -1.76192613 1.76192613 0 0 Z " fill="#F8F8F8" transform="translate(200,150)"/>
<path d="M0 0 C5.67555953 0.90808953 8.73610885 6.15798321 12.125 10.5 C20.93154861 21.3365822 30.75793998 30.42546771 42.125 38.5 C43.125 39.5 43.125 39.5 43.125 44.5 C41.125 46.5 41.125 46.5 38.328125 46.8125 C29.25967849 45.92777351 20.9047004 37.12978655 14.125 31.5 C12.5471875 30.2625 12.5471875 30.2625 10.9375 29 C7.30307082 25.76939628 4.22968519 22.23365159 1.125 18.5 C0.465 17.73945313 -0.195 16.97890625 -0.875 16.1953125 C-5.70666619 10.40900259 -5.70666619 10.40900259 -6.5 6.125 C-5.56664731 2.20491872 -3.95257592 0.68740451 0 0 Z " fill="#F7F7F7" transform="translate(92.875,248.5)"/>
<path d="M0 0 C0.33 0.66 0.66 1.32 1 2 C0.27530054 3.69685727 -0.53123766 5.35909202 -1.375 7 C-4.30794013 13.31900304 -6.16393949 18.64953766 -4.28515625 25.671875 C-1.71908015 31.84506875 1.46475371 34.51316551 7.546875 37.1171875 C9.57317106 37.84639596 11.62771309 38.49659043 13.6875 39.125 C14.450625 39.41375 15.21375 39.7025 16 40 C15 43 15 43 12.375 44.375 C7.89181169 45.20522006 5.9580134 44.19104313 2 42 C-3.79661017 37.81355932 -3.79661017 37.81355932 -5 33 C-5.66 33 -6.32 33 -7 33 C-10.32955776 26.34088449 -10.15893982 18.1765567 -8.171875 11.015625 C-7.125 8.5625 -7.125 8.5625 -5 5 C-4.34 5 -3.68 5 -3 5 C-2.34 3.68 -1.68 2.36 -1 1 C-0.67 0.67 -0.34 0.34 0 0 Z " fill="#E3E3E3" transform="translate(101,52)"/>
<path d="M0 0 C1.08436925 7.54411175 1.98621126 15.84957966 -2.19921875 22.48828125 C-8.80517366 29 -8.80517366 29 -11 29 C-11.18397698 26.14986482 -11.26898839 23.29323542 -11.3125 20.4375 C-11.34988281 18.84808594 -11.38726562 17.25867188 -11.42578125 15.62109375 C-10.85781452 9.45683095 -8.88496036 5.75032033 -4.375 1.5625 C-2 0 -2 0 0 0 Z " fill="#2B2B2B" transform="translate(186,184)"/>
<path d="M0 0 C0.33 0.66 0.66 1.32 1 2 C0.06279256 4.68937787 -0.93493771 7.35864553 -2 10 C-3.19156292 5.23374833 -2.3415946 4.12120649 0 0 Z " fill="#000000" transform="translate(317,239)"/>
<path d="M0 0 C2.99884326 -0.0833012 6.00115674 -0.0833012 9 0 C9 0.33 9 0.66 9 1 C6.00115674 1.0833012 2.99884326 1.0833012 0 1 C0 0.67 0 0.34 0 0 Z " fill="#000000" transform="translate(257,22)"/>
<path d="M0 0 C0 0.99 0 1.98 0 3 C-0.66 2.67 -1.32 2.34 -2 2 C-1.34 1.34 -0.68 0.68 0 0 Z " fill="#000000" transform="translate(237,354)"/>
<path d="M0 0 C4 1 4 1 4 1 Z " fill="#000000" transform="translate(91,308)"/>
<path d="M0 0 C4 1 4 1 4 1 Z " fill="#000000" transform="translate(239,73)"/>
<path d="M0 0 C2 1 2 1 2 1 Z " fill="#000000" transform="translate(224,335)"/>
<path d="" fill="#4C4C4C" transform="translate(0,0)"/>
<path d="" fill="#000000" transform="translate(0,0)"/>
<path d="" fill="#000000" transform="translate(0,0)"/>
<path d="" fill="#FFFFFF" transform="translate(0,0)"/>
<path d="" fill="#000000" transform="translate(0,0)"/>
<path d="" fill="#BFBFBF" transform="translate(0,0)"/>
<path d="" fill="#B0B0B0" transform="translate(0,0)"/>
<path d="" fill="#A1A1A1" transform="translate(0,0)"/>
<path d="" fill="#000000" transform="translate(0,0)"/>
<path d="" fill="#000000" transform="translate(0,0)"/>
<path d="" fill="#3C3C3C" transform="translate(0,0)"/>
<path d="" fill="#FFFFFF" transform="translate(0,0)"/>
<path d="" fill="#FFFFFF" transform="translate(0,0)"/>
</svg>
